<svg xmlns="http://www.w3.org/2000/svg" width="14" height="10" fill="none" viewBox="0 0 14 10"><g clip-path="url(#a)"><path fill="#131313" fill-rule="evenodd" d="M12.478.3c.6.161 1.072.634 1.234 1.234.3 1.095.288 3.379.288 3.379s0 2.272-.288 3.367a1.754 1.754 0 0 1-1.234 1.234C11.382 9.802 7 9.802 7 9.802s-4.37 0-5.478-.3A1.754 1.754 0 0 1 .288 8.27C0 7.185 0 4.9 0 4.9S0 2.63.288 1.534A1.79 1.79 0 0 1 1.522.288C2.618 0 7 0 7 0s4.382 0 5.478.3ZM5.605 2.802l3.644 2.1L5.605 7V2.802Z" clip-rule="evenodd"/></g><defs><clipPath id="a"><path fill="#fff" d="M0 0h14v9.802H0z"/></clipPath></defs></svg>