<svg width="35" height="35" viewBox="0 0 35 35" fill="none" xmlns="http://www.w3.org/2000/svg">
<g clip-path="url(#clip0_309_520)">
<path d="M23.061 12.1706C26.2459 15.3556 26.2459 20.5057 23.061 23.6906C19.8761 26.8755 14.726 26.8755 11.5411 23.6906C8.35613 20.5057 8.35613 15.3556 11.5411 12.1706C14.726 8.98571 19.8761 8.98571 23.061 12.1706ZM12.2187 23.0129C15.0309 25.8252 19.5711 25.8252 22.3834 23.0129C25.1956 20.2007 25.1956 15.6605 22.3834 12.8483C19.5711 10.0361 15.0309 10.0361 12.2187 12.8483C9.40647 15.6605 9.40647 20.2007 12.2187 23.0129Z" fill="white"/>
<path d="M20.486 14.7456L20.486 21.3187L19.5373 21.3187L19.5373 15.6943L13.9128 15.6943L13.9128 14.7456L20.486 14.7456Z" fill="white"/>
<path d="M14.5905 21.3188L13.9128 20.6412L19.6728 14.8812L20.3504 15.5589L14.5905 21.3188Z" fill="white"/>
</g>
<defs>
<clipPath id="clip0_309_520">
<rect width="23.9583" height="23.9583" fill="white" transform="translate(17.301 34.8718) rotate(-135)"/>
</clipPath>
</defs>
</svg>
